<?xml version="1.0" standalone="no"?>
<!DOCTYPE svg PUBLIC "-//W3C//DTD SVG 20010904//EN"
 "http://www.w3.org/TR/2001/REC-SVG-20010904/DTD/svg10.dtd">
<svg version="1.0" xmlns="http://www.w3.org/2000/svg"
 width="360.000000pt" height="360.000000pt" viewBox="0 0 360.000000 360.000000"
 preserveAspectRatio="xMidYMid meet">
<metadata>
Created by potrace 1.11, written by Peter Selinger 2001-2013
</metadata>
<g transform="translate(0.000000,360.000000) scale(0.100000,-0.100000)"
fill="#000000" stroke="none">
<path d="M0 1800 l0 -1800 1800 0 1800 0 0 1800 0 1800 -1800 0 -1800 0 0
-1800z m1865 1012 c238 -73 338 -323 224 -559 -20 -43 -50 -80 -94 -121 -36
-33 -65 -62 -65 -64 0 -3 21 -11 48 -18 198 -50 315 -246 283 -479 -25 -189
-141 -327 -314 -373 -89 -23 -132 -23 -235 2 -95 23 -142 45 -201 94 -24 20
-46 36 -49 36 -4 0 -5 -117 -4 -260 l4 -260 -91 0 -91 0 0 803 c0 768 1 807
20 881 42 166 134 271 277 316 78 25 208 26 288 2z"/>
<path d="M1645 2668 c-72 -25 -125 -86 -160 -183 -19 -56 -33 -353 -34 -760
l-1 -219 58 -56 c83 -78 156 -105 282 -105 112 0 154 17 217 89 50 56 73 127
73 220 0 100 -22 158 -84 222 -65 66 -131 88 -251 82 l-79 -3 -14 59 c-7 33
-9 62 -5 66 4 4 31 15 59 24 110 36 207 131 236 229 16 56 15 153 -1 200 -18
52 -67 106 -116 128 -44 21 -132 24 -180 7z"/>
</g>
</svg>
